<?xml version="1.0" encoding="UTF-8"?>
<svg version="1.1" xmlns="http://www.w3.org/2000/svg" width="344" height="343">
<path d="M0 0 C10.5486022 5.421834 19.61913035 14.33765543 27.9375 22.625 C28.63456055 23.31674316 29.33162109 24.00848633 30.04980469 24.72119141 C34.78834993 29.5243841 38.9751118 34.58934085 43 40 C43.53987549 40.72203613 44.07975098 41.44407227 44.63598633 42.18798828 C75.28626039 83.52286887 92.61049233 132.20245738 92.20581055 183.89135742 C92.18716565 186.35671014 92.18530453 188.82169238 92.18554688 191.28710938 C92.18064273 192.87500324 92.1748193 194.46289459 92.16796875 196.05078125 C92.16685593 196.77783768 92.1657431 197.5048941 92.16459656 198.25398254 C92.12997209 201.95688813 91.88006641 205.39853124 91 209 C94.31034285 206.82001812 97.55734305 204.5993136 100.75 202.25 C104 200 104 200 106 200 C106 199.34 106 198.68 106 198 C107.86328125 196.30859375 107.86328125 196.30859375 110.3125 194.4375 C111.11300781 193.81746094 111.91351563 193.19742188 112.73828125 192.55859375 C115 191 115 191 118 190 C118 189.34 118 188.68 118 188 C119.43359375 186.58984375 119.43359375 186.58984375 121.4375 184.9375 C129.44322229 178.0875334 136.0809573 170.88563175 142.15234375 162.30859375 C142.76207031 161.54675781 143.37179688 160.78492188 144 160 C144.66 160 145.32 160 146 160 C146.24492187 159.46246094 146.48984375 158.92492187 146.7421875 158.37109375 C148.30924714 155.41704034 150.18980947 152.78997236 152.125 150.0625 C161.6758509 136.35209812 169.02092119 122.16409113 176 107 C176.37108887 106.20811279 176.74217773 105.41622559 177.12451172 104.6003418 C179.42329598 99.60164676 181.18843491 94.62144267 182.625 89.3125 C182.94355957 88.15717773 182.94355957 88.15717773 183.26855469 86.97851562 C184.8886507 80.89499229 185.91636149 74.88263673 186.640625 68.625 C187 66 187 66 188 64 C188.99 64 189.98 64 191 64 C198.37638824 76.61223792 204.6163955 89.41547814 210 103 C210.29390625 103.7410498 210.5878125 104.48209961 210.890625 105.24560547 C221.05090125 131.32324847 225.02930766 158.84478174 225.125 186.6875 C225.13213013 188.39860962 225.13213013 188.39860962 225.1394043 190.14428711 C225.12568981 197.15036044 224.77017243 204.03599212 224 211 C236.5987935 204.03916659 247.00270354 194.56007946 257.31201172 184.625 C258.79372752 183.19857531 260.28842644 181.7856626 261.78515625 180.375 C274.47960852 168.14326153 285.5726505 153.04778149 293.7109375 137.4375 C294.13632812 136.633125 294.56171875 135.82875 295 135 C295.48726563 134.071875 295.97453125 133.14375 296.4765625 132.1875 C296.97929687 131.465625 297.48203125 130.74375 298 130 C298.99 130 299.98 130 301 130 C297.73051628 152.15983412 286.24319533 175.85338409 272 193 C271.2059375 193.99257813 270.411875 194.98515625 269.59375 196.0078125 C254.01599633 215.20517185 235.94522729 230.52405546 214 242 C213.27240479 242.38969971 212.54480957 242.77939941 211.79516602 243.1809082 C205.36757511 246.53223166 198.82514762 248.95543226 191.9375 251.1875 C190.91333984 251.52974609 189.88917969 251.87199219 188.83398438 252.22460938 C185.89605329 253.19140459 182.97257118 254.14484436 180 255 C179.08926979 255.26941154 179.08926979 255.26941154 178.16014099 255.54426575 C170.88426612 257.45008597 163.57951443 257.3092862 156.10546875 257.30078125 C154.66734191 257.30467853 153.22921619 257.30901528 151.79109192 257.31376648 C148.78801735 257.32119125 145.78506041 257.32096527 142.78198242 257.31567383 C138.96621951 257.30989099 135.15094387 257.32679946 131.33526134 257.3500185 C128.36751064 257.36487588 125.39987398 257.36561128 122.43209267 257.36250877 C121.02692006 257.36301621 119.62174007 257.36814307 118.21660423 257.37832069 C109.33809603 257.4347394 101.49939374 256.57954446 93 254 C92.1210759 253.75157852 91.24215179 253.50315704 90.33659363 253.24720764 C63.41459231 245.62293412 40.97491319 231.2774651 21 212 C20.07703125 211.14019531 19.1540625 210.28039062 18.203125 209.39453125 C-4.39522392 187.78565806 -20.42010642 156.68941469 -26 126 C-26.25910156 124.62134766 -26.25910156 124.62134766 -26.5234375 123.21484375 C-29.66988301 105.54458818 -30.074611 87.72126039 -27.30322266 69.984375 C-27.00044593 68.00291832 -26.73915404 66.01888841 -26.48046875 64.03125 C-23.46261722 42.6672261 -14.78671914 18.59191932 -2 1 C-1.34 0.67 -0.68 0.34 0 0 Z " fill="#135FC6" transform="translate(37,86)"/>
<path d="M0 0 C1.32112793 -0.0131424 1.32112793 -0.0131424 2.66894531 -0.02655029 C18.82700018 -0.13683519 34.0824238 2.34533736 49.4375 7.4375 C50.61082886 7.81974731 50.61082886 7.81974731 51.80786133 8.2097168 C70.53945859 14.4408126 86.89554795 23.78666698 102.625 35.5625 C103.80835938 36.38621094 103.80835938 36.38621094 105.015625 37.2265625 C105.54671875 37.66742188 106.0778125 38.10828125 106.625 38.5625 C106.625 39.2225 106.625 39.8825 106.625 40.5625 C107.2025 40.830625 107.78 41.09875 108.375 41.375 C110.68050043 42.59179189 112.64556192 43.86583879 114.625 45.5625 C114.625 46.2225 114.625 46.8825 114.625 47.5625 C115.615 47.8925 116.605 48.2225 117.625 48.5625 C119.16796875 50.05859375 119.16796875 50.05859375 120.8125 52 C121.42222656 52.71929687 122.03195312 53.43859375 122.66015625 54.1796875 C125.39529673 57.49665707 128.11825402 60.81851578 130.76953125 64.203125 C131.86175615 65.59197519 132.97577173 66.96493578 134.13671875 68.296875 C145.03084283 81.51377028 142.61973969 107.76543305 141.3515625 123.72265625 C138.66788297 146.58456771 131.23560545 167.31078604 120.625 187.5625 C119.635 187.5625 118.645 187.5625 117.625 187.5625 C116.15228748 183.77552495 115.3812122 180.14770294 114.8125 176.1484375 C113.69991037 169.33060371 111.72955651 162.96412275 109.5 156.4375 C109.10256592 155.2626001 108.70513184 154.0877002 108.2956543 152.87719727 C103.98188863 140.35399711 99.1875937 128.05391054 92.046875 116.84375 C90.48053132 114.33071509 89.12110606 111.74926751 87.75 109.125 C84.5547764 103.20296254 80.68319005 97.91637723 76.625 92.5625 C76.08617187 91.82902344 75.54734375 91.09554687 74.9921875 90.33984375 C72.08116311 86.38481323 69.02644456 82.64614401 65.7265625 79.0078125 C64.625 77.5625 64.625 77.5625 64.625 75.5625 C63.965 75.5625 63.305 75.5625 62.625 75.5625 C61.59850723 74.43724845 60.62912304 73.25967355 59.6875 72.0625 C55.9294262 67.58784433 51.60683427 64.48427766 46.78515625 61.2265625 C46.07230469 60.67742187 45.35945312 60.12828125 44.625 59.5625 C44.625 58.9025 44.625 58.2425 44.625 57.5625 C43.449375 57.2221875 43.449375 57.2221875 42.25 56.875 C39.28182787 55.80031699 36.67146418 54.62101871 33.875 53.1875 C20.92489898 46.64530082 7.13923209 42.61808052 -7.375 41.5625 C-6.85550781 42.531875 -6.33601563 43.50125 -5.80078125 44.5 C-0.84402394 53.943426 2.99572876 63.2237571 5.625 73.5625 C5.9446875 74.78195313 6.264375 76.00140625 6.59375 77.2578125 C13.97230834 111.07620488 6.75952561 146.95045669 -8.375 177.5625 C-8.75785156 178.40039062 -9.14070313 179.23828125 -9.53515625 180.1015625 C-10.39974456 181.96223545 -11.37566486 183.77058872 -12.375 185.5625 C-13.365 185.8925 -14.355 186.2225 -15.375 186.5625 C-16.63932421 184.03385158 -16.77856253 181.57836669 -17.12207031 178.80004883 C-19.49645818 160.54556375 -26.38247571 143.07070951 -34.375 126.5625 C-34.95241943 125.36874756 -34.95241943 125.36874756 -35.54150391 124.15087891 C-43.07713863 108.77865157 -51.67996917 93.68826941 -63.2800293 80.98583984 C-64.375 79.5625 -64.375 79.5625 -64.375 77.5625 C-65.035 77.5625 -65.695 77.5625 -66.375 77.5625 C-67.78515625 76.12890625 -67.78515625 76.12890625 -69.4375 74.125 C-76.06311486 65.83189116 -76.06311486 65.83189116 -84.375 59.5625 C-84.375 58.9025 -84.375 58.2425 -84.375 57.5625 C-85.42107422 57.17384766 -85.42107422 57.17384766 -86.48828125 56.77734375 C-89.66478135 55.44054872 -92.56418803 53.82319131 -95.5625 52.125 C-100.45892583 49.43752992 -105.01074461 47.51175655 -110.44921875 46.265625 C-112.375 45.5625 -112.375 45.5625 -114.375 42.5625 C-93.39052566 26.09110396 -72.32009897 12.7414337 -46.375 5.5625 C-45.53485352 5.31983398 -44.69470703 5.07716797 -43.82910156 4.82714844 C-29.27455389 0.77918153 -15.01345767 0.06461035 0 0 Z " fill="#32A8DC" transform="translate(176.375,12.4375)"/>
<path d="M0 0 C0.99 0 1.98 0 3 0 C2.71788123 1.6266848 2.42397625 3.25132896 2.125 4.875 C1.96257812 5.77992188 1.80015625 6.68484375 1.6328125 7.6171875 C1 10 1 10 -1 12 C-0.67 9.36 -0.34 6.72 0 4 C-0.99 5.32 -1.98 6.64 -3 8 C-2.45276317 4.62537285 -1.9451 2.91765 0 0 Z " fill="#D9E4F4" transform="translate(335,216)"/>
<path d="M0 0 C1 3 1 3 0.375 5.5625 C-1.33177722 8.58815053 -2.73058318 9.05358987 -6 10 C-5.34 8.35 -4.68 6.7 -4 5 C-3.34 5 -2.68 5 -2 5 C-1.34 3.35 -0.68 1.7 0 0 Z " fill="#558BD6" transform="translate(335,219)"/>
</svg>
